<?xml version="1.0" encoding="utf-8"?>
<svg version="1.1" xmlns:xlink="http://www.w3.org/1999/xlink" width="24px" height="24px" xmlns="http://www.w3.org/2000/svg">
  <g transform="matrix(1 0 0 1 -291 -125 )">
    <path d="M 24 1.107692296875  C 24 0.495923062500012  23.5040769140624 0  22.892307703125 0  L 1.10769229687503 0  C 0.495923085937648 0  0 0.495923085937491  0 1.107692296875  L 0 22.892307703125  C 0 23.5040769375  0.495923085937648 24  1.10769229687503 24  L 22.892307703125 24  C 23.5040769375 24  24 23.5040769140625  24 22.892307703125  L 24 1.107692296875  Z M 2.7692307656248 12.918230765625  L 2.7692307656248 11.0426769140625  L 12.3440307656249 11.0426769140625  L 10.2376615312501 8.93658461718752  L 11.5624153828126 7.61007691406252  L 15.9549692343751 12.00193846875  L 14.6282307656249 13.32853846875  L 14.6223692343749 13.3225846171875  L 11.5487538515624 16.39573846875  L 10.2220153828125 15.0691846171875  L 12.373292296875 12.918230765625  L 2.7692307656248 12.918230765625  Z M 21.2307692343752 11.9999538515625  C 21.2307692343752 13.30693846875  20.9748 14.5768615546875  20.4687230859377 15.7725230859375  C 19.9802307890625 16.9272  19.2825692343749 17.9626153828125  18.3916615312501 18.8535230859375  C 17.500569234375 19.7444307890625  16.4649692343748 20.4418615546875  15.3102000000001 20.93026153125  C 14.1143999999999 21.43633846875  12.844292296875 21.692307703125  11.5370769140625 21.692307703125  C 10.2142153828127 21.692307703125  8.93238461718738 21.4304307890625  7.72679999999991 20.914707703125  C 6.56224614843768 20.4145846171875  5.51870770312507 19.7034  4.627707703125 18.7949538515625  L 5.96432308593739 17.4801230859375  C 6.68330770312514 18.212769234375  7.52547693750012 18.787107703125  8.46535385156244 19.1896153828125  C 9.43652308593755 19.60573846875  10.4701846171874 19.8167076796875  11.5370769140625 19.816707703125  C 12.5922 19.816707703125  13.6160307656251 19.60961540625  14.5793999999999 19.203230765625  C 15.50953846875 18.8106  16.3458000000001 18.2459538515625  17.0649230859374 17.526969234375  C 17.7839538515627 16.8080769375  18.3467538515624 15.9738461484375  18.741369234375 15.041907703125  C 19.1478461484376 14.0787230859375  19.3549384687499 13.0548923203125  19.3549384687499 11.9999538515625  C 19.3549384687499 10.9450153828125  19.147846171875 9.9213230859375  18.741369234375 8.95809229687501  C 18.3486461484376 8.028092296875  17.7839538515627 7.1919230625  17.0649230859374 6.47293846874999  C 16.3458461718751 5.75404617187499  15.5114769375 5.1912923203125  14.5793999999999 4.79676923437499  C 13.6160307656251 4.39038461718752  12.5922 4.1832923203125  11.5370769140625 4.18329229687501  C 10.470230765625 4.18329229687501  9.43652306249987 4.39426153125  8.46535385156244 4.81038461718751  C 7.52547693750012 5.21289232031251  6.68529232031256 5.787230765625  5.96432308593739 6.51987691406248  L 4.627707703125 5.20509229687499  C 5.51875385156245 4.2966  6.56224617187513 3.5854153828125  7.72679999999991 3.08529229687501  C 8.93238461718738 2.56947691406251  10.2161538515625 2.30769229687499  11.5370769140625 2.30769229687499  C 12.844292296875 2.30769229687499  14.1143999999999 2.56361538281249  15.3102461484375 3.06960000000001  C 16.4650153828125 3.55804614843751  17.5006153828124 4.255569234375  18.3917077031249 5.14638461718749  C 19.2807230859376 6.03539999999998  19.9802769375001 7.07275385156251  20.4687692343748 8.22733846874999  C 20.9748 9.423046171875  21.2307692343752 10.6929230859375  21.2307692343752 11.9999538515625  Z " fill-rule="nonzero" fill="#ffffff" stroke="none" transform="matrix(1 0 0 1 291 125 )" />
  </g>
</svg>