 <svg class="icon" viewBox="0 0 1024 1024" version="1.1" xmlns="http://www.w3.org/2000/svg" p-id="1986" height="128" width="128"><path d="M905.226022 971.457801H118.59518a26.223663 26.223663 0 0 1-26.222447-26.221231v-52.443678a26.215149 26.215149 0 0 1 26.222447-26.221231h786.630842a26.220014 26.220014 0 0 1 26.221231 26.221231v52.443678a26.221231 26.221231 0 0 1-26.221231 26.221231zM774.121085 787.909185c-57.921942 0-104.884923-46.960548-104.884924-104.88249V420.810738c0.004865-57.921942 46.962981-104.873976 104.884924-104.873977s104.876409 46.952034 104.884923 104.873977v262.21474a104.881274 104.881274 0 0 1-30.721581 74.16091 104.876409 104.876409 0 0 1-74.163342 30.722797z m-288.433539 0a104.882491 104.882491 0 0 1-74.16091-30.722797 104.878842 104.878842 0 0 1-30.721581-74.16091v-524.424616c0.004865-57.921942 46.960548-104.873976 104.882491-104.873976 57.920726 0 104.880058 46.952034 104.888572 104.873976v524.424616c0 57.921942-46.962981 104.883707-104.888572 104.883707z m-288.432323 0a104.883707 104.883707 0 0 1-74.160909-30.722797 104.878842 104.878842 0 0 1-30.721581-74.16091V525.69931c0-57.926808 46.955683-104.887356 104.88249-104.887356s104.888572 46.960548 104.888573 104.887356v157.327385a104.891005 104.891005 0 0 1-104.888573 104.88249z m0 0" fill="#FF685A" p-id="1987"></path></svg>