<?xml version="1.0" encoding="utf-8"?>
<svg version="1.1" xmlns:xlink="http://www.w3.org/1999/xlink" width="24px" height="22px" xmlns="http://www.w3.org/2000/svg">
  <g transform="matrix(1 0 0 1 -741 -127 )">
    <path d="M 24 1.73670452574538  C 23.9999740823112 0.777532130864714  23.232496768843 -1.31230572719687E-05  22.285782960083 0  L 19.4285591449697 0  L 19.4285591449697 1.73672828702257  C 19.4285591449697 2.69591653206268  18.6610832841522 3.47349223955609  17.7143538313749 3.47349223955609  C 16.7676243785976 3.47349223955609  16.0001485177802 2.69591653206268  16.0001485177802 1.73672828702257  L 16.0001485177802 0  L 7.99985145876713 0  L 7.99985145876713 1.73675204829976  C 7.99985147049344 2.69613687575469  7.23238085972932 3.473707264105  6.28565788322101 3.473707264105  C 5.33893490671267 3.473707264105  4.57146429594852 2.69613687575469  4.57146429594852 1.7369551922101  L 4.57146430767483 0  L 1.71419358727243 0  C 0.767479778674584 0  1.29653648741623E-05 0.777555892126458  0 1.73672828702257  L 0 20.2632479281051  C 0 21.2224296116497  0.767470610764121 22  1.71419358727243 22  L 17.7143421050527 22  C 20.8688035173041 22  24 18.8271698220458  24 15.6316239581537  L 24 1.73670452574538  Z M 22.8573215383743 15.051280947986  C 22.8583795667535 18.1908303520293  20.3893349538699 20.7590802877901  17.2916099464866 20.840620826148  C 18.2858806833439 19.1038687542531  18.3660883992732 16.8284745473105  18.3257734675078 15.69394952682  C 19.8700520697614 15.870109093032  21.4328715196447 15.6304214553476  22.856500695816 14.9990776358754  L 22.856500695816 15.0513047092632  Z M 22.8573215383743 13.6965135760139  C 22.1315824555703 14.2347042705564  20.6688705435941 14.8542057229474  17.8514926073556 14.5535080195958  L 17.1448673594793 14.4726487260138  L 17.2246763804517 15.1885730372551  C 17.2246763804517 15.2307016153644  17.5389405037024 18.9286775942125  15.887482482548 20.8389337754683  L 2.85644987784411 20.8389337754683  C 1.90970347214392 20.8389337756306  1.14223286137977 20.0613633872802  1.14223286137977 19.1021817037356  L 1.14223286137977 6.36835225697391  C 1.14223287424389 5.40917058264532  1.9097034812402 4.63160020867804  2.85642644865223 4.63160020867804  C 2.85643425842645 4.63160020867804  2.8564420680699 4.63160020873212  2.85644987784411 5  L 21.1427058035005 5  C 22.0894287708499 4.63160020884027  22.8568993778204 5.40917058270867  22.8568993907729 6.36835225697391  L 22.8568993907729 13.6960858730247  Z " fill-rule="nonzero" fill="#ffffff" stroke="none" transform="matrix(1 0 0 1 741 127 )" />
  </g>
</svg>