<?xml version="1.0" encoding="utf-8"?>
<svg version="1.1" xmlns:xlink="http://www.w3.org/1999/xlink" width="32px" height="24px" xmlns="http://www.w3.org/2000/svg">
  <g transform="matrix(1 0 0 1 -955 -126 )">
    <path d="M 3.12687592233436 18.8652811515499  L 2.9440739438769 18.6846158562357  C 1.06167752157944 16.8460983364616  0.00157936906498435 14.3398184162328  0 11.7242477132422  C 0 9.27100319537358  1.02946376592899 6.99842397281916  3.06914898551327 4.98257963867179  C 4.96451685118757 3.09985711587438  7.36018485969248 2.10144364793732  9.97713947120207 2.10144364793732  L 20.8682888109763 2.10144364793732  L 20.8682888109763 0.94138228295921  C 20.8682888109763 0.361351600470186  21.3878312660805 2.10098417596782E-05  21.868889120352 2.10332792676127E-05  C 22.0491069155254 -0.0011706169088086  22.2259542220607 0.0482954791919638  22.3788104074621 0.14265150860956  L 26.7371943864565 2.28210894325151  C 27.0450714065502 2.47228292598358  27.2182522170134 2.74803523610131  27.2182522170134 3.04280492105475  C 27.2182522170134 3.3375746060082  27.0450714065502 3.61332689268846  26.7468155544507 3.79399218800266  L 22.2729777018142 6.19018451105167  C 22.1524111080986 6.26632597382924  22.0119584003479 6.30598626423655  21.868889120352 6.30428890069087  C 21.3397254972536 6.30428890069087  20.8586676666968 5.77180172560362  20.8586676666968 5.19177104311457  L 20.8586676666968 4  L 9.88092790983364 4  C 5.71496707729074 3.82251829713121  1.77991399203222 7.66403295925637  1.77991399203222 11.7147390023868  C 1.77991399203222 13.6830398291324  2.73240850886646 15.7464276706815  4.40648974782124 17.3629066176541  L 4.51232247718394 17.4675022964379  L 3.12687592233436 18.8652811515499  Z M 11.1220571107732 23.0776351151588  C 11.1220571107732 23.6386483993746  10.6025146556689 23.999978990003  10.121456825112 23.9999789665655  C 9.94123902188841 24.0011706212036  9.76439170651219 23.9517045249304  9.61153551428731 23.8573484912353  L 5.25315153529289 21.7178910565933  C 4.94527451519917 21.5277170738612  4.77209370473605 21.2519647637435  4.77209370473605 20.9571950787901  C 4.77209370473605 20.6624253938366  4.94527451519917 20.3866731071564  5.24353039101339 20.2060078118421  L 9.7173682436499 17.8098154887931  C 9.83793483736548 17.7336740260156  9.97838754511628 17.6940137356083  10.121456825112 17.6957110991539  C 10.6506204482105 17.6957110991539  11.1316782787673 18.2281982742412  11.1316782787673 18.8082289567302  L 11.1316782787673 20  L 22.11903917991 20  C 26.2850000124529 20.1774817027136  30.2200530977114 16.3359670405884  30.2200530977114 12.285260997458  C 30.2200530977114 10.440573271207  29.3541489979661 8.47227242102387  27.8532485694744 6.89382827059778  L 27.718552359844 6.76070648268533  L 27.8821120260276 6.6656194913193  L 29.4407394150551 5.74327561647506  L 29.527329832144 5.83836260784106  C 31.1260263484675 7.61725139935275  32.0062030701686 9.91551783433676  31.9999670897436 12.2947696848758  C 31.9999670897436 14.7480142027445  30.9705033238146 17.0205934252989  28.9308181042303 19.0364377594462  C 27.0258290942766 20.9191602822436  24.6397822300511 21.9175737501807  22.0228276185416 22  L 11.1220571107732 22  L 11.1220571107732 23.0776351151588  Z " fill-rule="nonzero" fill="#ffffff" stroke="none" transform="matrix(1 0 0 1 955 126 )" />
  </g>
</svg>