<?xml version="1.0" encoding="utf-8"?>
<svg version="1.1" xmlns:xlink="http://www.w3.org/1999/xlink" width="37px" height="19px" xmlns="http://www.w3.org/2000/svg">
  <g transform="matrix(1 0 0 1 -511 -128 )">
    <path d="M 15.0892939404704 18.5344792753484  C 14.9736919488241 18.8154692623003  14.7012015399436 19  14.4039392757103 19  L 14.3585242075636 19  C 14.0447473730951 18.9790305979887  13.7722569642146 18.7609488170708  13.6855554704798 18.4506016673031  L 9.35460942630299 2.94582582012474  L 4.48281120692386 13.8247515836034  C 4.37133785783639 14.0721905273371  4.14013387454377 14.2399457434278  3.87177210822211 14.2651090258414  C 3.60341034190033 14.290272308255  3.34743450325502 14.1686497765893  3.19467472857961 13.9463741152691  L 0.135350592511832 9.51344253007371  C -0.0999820333395703 9.16954433708788  -0.0215378247223596 8.69982973203405  0.317010865098834 8.46077854910487  C 0.655559554920142 8.21753348577343  1.11796752150527 8.30560497422102  1.35330014735667 8.64530928680459  L 3.66946862284108 11.9920258478131  L 8.84265774901225 0.442079219971772  C 8.97064566833496 0.152701472215399  9.27616521768589 -0.0192476242775204  9.57755612447793 0.00172177773380841  C 9.89133295894643 0.0268850601474117  10.1514374401505 0.244966841065263  10.2381389338853 0.55112011043069  L 14.5401844801506 15.959436708357  L 19.7587886744685 3.3232750563287  C 19.8743906661149 3.04228506937686  20.1468810749953 2.85775433167714  20.4441433392287 2.85775433167714  L 20.4524006243462 2.85775433167714  C 20.7537915311383 2.86194821207941  21.0262819400188 3.04647894977913  21.1377552891063 3.33166281713322  L 25.3943857672249 14.1434864941757  L 29.6634021730198 7.24455323244766  C 29.8657056584007 6.92162444147315  30.2744412717216 6.80000190980743  30.6171186041016 6.96356324549582  L 34.4237270433114 8.81306450289525  C 34.7953048736031 8.99340136019269  34.9521932908373 9.44634044363744  34.774661660809 9.82378967984141  C 34.5971300307808 10.2012389160454  34.1512366344308 10.3606063713315  33.7796588041393 10.180269514034  L 30.5717035359548 8.62014600439099  L 25.8733083040452 16.2068756520907  C 25.7246771719285 16.4459268350198  25.4563154056068 16.5801310078924  25.1755677116087 16.559161605881  C 24.8948200176106 16.5339983234674  24.6553587492004 16.3494675857677  24.5521426852305 16.085253120425  L 20.4276287689934 5.60893987556382  L 15.0892939404704 18.5344792753484  Z M 32.8383283007337 9.76088147380742  C 32.8383283007337 10.9282544329555  33.7699502437134 11.8745971965496  34.9191641503669 11.8745971965496  C 36.0683780570205 11.8745971965496  37 10.9282544329555  37 9.76088147380742  C 37 8.59350851465933  36.0683780570205 7.64716575106522  34.9191641503669 7.64716575106522  C 33.7699502437134 7.64716575106522  32.8383283007337 8.59350851465933  32.8383283007337 9.76088147380742  Z " fill-rule="nonzero" fill="#ffffff" stroke="none" transform="matrix(1 0 0 1 511 128 )" />
  </g>
</svg>