<?xml version="1.0" encoding="utf-8"?>
<svg version="1.1" xmlns:xlink="http://www.w3.org/1999/xlink" width="24px" height="24px" xmlns="http://www.w3.org/2000/svg">
  <g transform="matrix(1 0 0 1 -1184 -126 )">
    <path d="M 11.0752991794708 3.69140625  C 11.077643158133 1.66171875000001  9.41576228654685 0  7.38587676497616 0  L 3.69176639315685 0  C 1.66188087158616 0  0 1.66171875000001  0 3.69140625  L 0 7.3828125  C 0 9.41249999999999  1.66188087158616 11.07421875  3.69176639315685 11.07421875  L 7.38353278631371 11.07421875  C 9.41341830788463 11.07421875  11.0752991794708 9.41249999999999  11.0752991794708 7.3828125  L 11.0752991794708 3.69140625  Z M 23.9999975235133 3.69140625  C 24.0023415021757 1.66171875000001  22.3404606305895 0  20.3105751090188 0  L 16.6164647371995 0  C 14.5865792156287 0  12.9246983440426 1.66171875000001  12.9246983440426 3.69140625  L 12.9246983440426 7.3828125  C 12.9246983440426 9.41249999999999  14.5865792156287 11.07421875  16.6164647371995 11.07421875  L 20.3082311303565 11.07421875  C 22.3381166519272 11.07421875  23.9999975235133 9.41249999999999  23.9999975235133 7.3828125  L 23.9999975235133 3.69140625  Z M 11.0752991794708 16.61484375  C 11.077643158133 14.58515625  9.41576228654685 12.9234375  7.38587676497616 12.9234375  L 3.69176639315685 12.9234375  C 1.66188087158616 12.9234375  0 14.58515625  0 16.61484375  L 0 20.30625  C 0 22.33828125  1.66188087158616 24  3.69176639315685 24  L 7.38353278631371 24  C 9.41341830788463 24  11.0752991794708 22.33828125  11.0752991794708 20.30859375  L 11.0752991794708 16.61484375  Z M 23.9999975235133 16.61484375  C 24.0023415021757 14.58515625  22.3404606305895 12.9234375  20.3105751090188 12.9234375  L 16.6164647371995 12.9234375  C 14.5865792156287 12.9234375  12.9246983440426 14.58515625  12.9246983440426 16.61484375  L 12.9246983440426 20.30625  C 12.9246983440426 22.3359375  14.5865792156287 23.99765625  16.6164647371995 23.99765625  L 20.3082311303565 23.99765625  C 22.3381166519272 23.99765625  23.9999975235133 22.3359375  23.9999975235133 20.30625  L 23.9999975235133 16.61484375  Z " fill-rule="nonzero" fill="#ffffff" stroke="none" transform="matrix(1 0 0 1 1184 126 )" />
  </g>
</svg>