 <svg class="icon" viewBox="0 0 1024 1024" version="1.1" xmlns="http://www.w3.org/2000/svg" p-id="2119" height="128" width="128"><path d="M762.92608 463.78496c3.31264 16.41984 5.07392 33.39264 5.07392 50.77504 0 10.23488-0.67072 20.30592-1.8432 30.22848l3.28704-5.68832 50.19648 28.9792a312.576 312.576 0 0 0 4.6848-53.51936c0-21.248-2.1504-42.00448-6.21568-62.06976l-46.27456 26.71616-8.9088-15.42144zM612.58752 279.17824a256.44544 256.44544 0 0 1 64.88576 40.27392l-9.30304-16.11776 45.99296-26.55744a312.76544 312.76544 0 0 0-84.39808-51.41504v53.81632h-17.1776zM331.75552 332.96896A256.88064 256.88064 0 0 1 407.3472 281.02144h-17.24928V227.02592a312.89344 312.89344 0 0 0-81.77152 51.06176l41.33376 23.86432-17.90464 31.01696zM418.44736 752.77824a255.85152 255.85152 0 0 1-61.95712-35.06176l-51.97824 30.00832a313.02144 313.02144 0 0 0 84.9664 54.08256v-49.03424h28.96896zM257.3056 540.43136a255.6928 255.6928 0 0 1 5.52448-84.40832l-13.65504 23.64416-43.63776-25.19552A312.79616 312.79616 0 0 0 199.68 514.56c0 18.80576 1.7664 37.20192 4.9664 55.10144l52.15232-30.11072 0.50688 0.88064zM669.2096 716.38016a256 256 0 0 1-58.99776 34.56h18.92864v53.05856a313.088 313.088 0 0 0 91.55584-57.31328l-51.73248-29.87008 0.24576-0.4352zM509.312 358.39488c-88.03328 0-159.65184 71.61856-159.65184 159.65184 0 88.02816 71.61856 159.65184 159.65184 159.65184 88.02816 0 159.65184-71.61856 159.65184-159.65184-0.00512-88.03328-71.62368-159.65184-159.65184-159.65184z m0 262.97856c-56.97536 0-103.33184-46.35648-103.33184-103.33184 0-56.97536 46.35136-103.33184 103.33184-103.33184 56.97536 0 103.33184 46.35136 103.33184 103.33184-0.00512 56.98048-46.35648 103.33184-103.33184 103.33184zM446.41792 136.53504H573.44v71.808a309.39648 309.39648 0 0 1 56.32 17.01888V80.21504H390.09792v146.81088a309.8624 309.8624 0 0 1 56.32-17.80224V136.53504zM407.3472 281.02144a254.44352 254.44352 0 0 1 39.07072-13.91104V209.22368a309.46304 309.46304 0 0 0-56.32 17.80224v53.99552h17.24928zM573.44 266.0608a253.94176 253.94176 0 0 1 39.14752 13.11744H629.76V225.36192a309.39648 309.39648 0 0 0-56.32-17.01888v57.71776zM572.82048 895.42656H445.7984v-75.6736c-19.5072-4.224-38.3488-10.24-56.32-17.93536v149.92896h239.66208v-147.74272a309.20192 309.20192 0 0 1-56.32 16.89088v74.53184zM610.21184 750.94016a254.73536 254.73536 0 0 1-37.39136 12.2624v57.69216a309.20192 309.20192 0 0 0 56.32-16.89088v-53.05856h-18.92864zM445.7984 761.83552a253.06624 253.06624 0 0 1-27.35104-9.05728H389.4784v49.03424a309.28896 309.28896 0 0 0 56.32 17.93536v-57.91232zM807.21408 616.29952l63.36512 36.58752-54.0928 93.70624-61.82912-35.69664a314.30144 314.30144 0 0 1-33.96096 35.7888l120.576 69.61152 102.07744-176.7936-123.70944-71.41888a310.14912 310.14912 0 0 1-12.42624 48.21504zM754.65728 710.89664l-49.51552-28.59008a257.95584 257.95584 0 0 1-35.93216 34.0736l-0.25088 0.4352 51.73248 29.87008a314.79296 314.79296 0 0 0 33.96608-35.7888zM766.1568 544.78848a254.26944 254.26944 0 0 1-8.8064 42.7264l49.86368 28.78464a309.62688 309.62688 0 0 0 12.42112-48.22016l-50.19648-28.9792-3.28192 5.68832zM148.03968 365.88032l54.0928-93.70624L273.408 313.32864a314.73664 314.73664 0 0 1 34.91328-35.24096l-130.9696-75.61728-102.07744 176.7936 130.26304 75.20256a309.30432 309.30432 0 0 1 13.32736-47.69792l-70.82496-40.88832zM262.83008 456.02304c1.63328-6.9632 3.53792-13.824 5.7344-20.56192l-49.69984-28.69248a310.0416 310.0416 0 0 0-13.32736 47.69792l43.63776 25.19552 13.65504-23.63904zM273.41312 313.32864l49.664 28.672a258.02752 258.02752 0 0 1 8.6784-9.03168l17.90464-31.01696-41.33376-23.86432a314.73664 314.73664 0 0 0-34.91328 35.24096zM749.32736 311.86944l67.94752-39.23456 54.10304 93.70112-66.94912 38.65088a309.4272 309.4272 0 0 1 13.67552 47.50336l126.03392-72.76544-102.07744-176.79872-127.90272 73.85088a314.8288 314.8288 0 0 1 35.16928 35.09248zM677.46816 319.45216a258.1248 258.1248 0 0 1 22.10816 21.14048l49.74592-28.7232a314.7776 314.7776 0 0 0-35.16416-35.09248l-45.99296 26.55744 9.30304 16.11776zM754.816 433.63328a252.4928 252.4928 0 0 1 8.11008 30.15168l8.90368 15.42144 46.27456-26.71616a309.59104 309.59104 0 0 0-13.67552-47.50336l-49.6128 28.6464zM270.28992 712.09472l-58.94144 34.02752-54.10304-93.70112 60.03712-34.6624a309.75488 309.75488 0 0 1-12.63616-48.10752l-120.16128 69.38112 102.07744 176.7936 117.95456-68.10624a314.73664 314.73664 0 0 1-34.2272-35.62496zM267.07456 589.01504a254.28992 254.28992 0 0 1-9.76896-48.58368l-0.512-0.88064-52.15232 30.11072a309.90336 309.90336 0 0 0 12.63616 48.10752l49.79712-28.75392zM319.872 683.4688l-49.58208 28.62592a315.68896 315.68896 0 0 0 34.2272 35.6352l51.97824-30.00832a258.05824 258.05824 0 0 1-36.62336-34.2528z" p-id="2120"></path></svg>