

<svg t="1555076687780" class="icon" viewBox="0 0 1024 1024" version="1.1" xmlns="http://www.w3.org/2000/svg" p-id="5027" height="48" width="48"><path d="M84.764444 0L0.682667 70.428444C150.641778 181.76 290.474667 309.76 413.013333 438.129778 224.938667 627.086222 77.653333 812.942222 0 887.608889l160.284444 133.688889c56.860444-116.992 180.679111-295.111111 346.339556-481.336889C672.455111 727.324444 796.586667 906.040889 853.902222 1024c0 0 156.16-165.461333 170.126222-139.861333-60.302222-67.584-206.791111-264.078222-404.280888-465.379556 113.123556-115.882667 240.014222-230.513778 375.552-331.264L958.407111 18.801778c-153.770667 76.231111-299.804444 189.354667-431.217778 309.76C394.666667 203.548444 244.593778 83.854222 84.821333 0z" p-id="5028" fill="#d81e06"></path></svg>