
 <svg class="icon" viewBox="0 0 1024 1024" version="1.1" xmlns="http://www.w3.org/2000/svg" p-id="1598" height="128" width="128"><path d="M7.67 512.003C7.67 794.773 234.866 1024 515.126 1024c280.27 0 507.457-229.227 507.457-511.997S795.396 0 515.127 0C234.867 0 7.669 229.233 7.669 512.003z" fill="#858585" p-id="1599"></path><path d="M793.678 233.134c15.083 14.883 15.083 40.913 0 55.802L284.084 791c-15.109 14.853-41.532 14.853-56.636 0-15.083-14.878-15.083-40.919 0-55.802l509.59-502.063c15.108-14.858 41.537-14.858 56.64 0z" fill="#FFFFFF" p-id="1600"></path><path d="M236.585 240.824c14.659-14.409 40.295-14.409 54.954 0L785.994 727.66c14.628 14.434 14.628 39.682 0 54.11-14.66 14.403-40.295 14.403-54.96 0L236.586 294.934c-14.633-14.44-14.633-39.682 0-54.11z" fill="#FFFFFF" p-id="1601"></path></svg>